<svg xmlns="http://www.w3.org/2000/svg" xmlns:xlink="http://www.w3.org/1999/xlink" width="27" height="27" viewBox="0 0 27 27">
  <circle cx="13.43" cy="13.43" r="12.93" fill="none" stroke="#ffdc8c" stroke-miterlimit="10"/>
  <circle cx="13.43" cy="13.43" r="10.38" fill="#ffb200"/>
  <polygon points="11.32 19.26 11.32 17.43 10.72 17.43 10.71 16.14 10.1 16.21 10.1 15 9.54 14.99 9.46 13.78 8.88 13.78 8.89 13.16 8.28 13.16 8.28 11.34 10.11 11.34 10.11 11.94 10.71 11.94 10.71 6.46 11.33 6.45 11.33 5.86 12.54 5.86 12.54 6.45 13.16 6.47 13.16 8.89 14.37 8.89 14.39 9.49 16.21 9.51 16.21 10.12 17.43 10.12 17.43 10.79 18.04 10.73 18.05 11.39 18.65 11.33 18.65 15.61 18.04 15.52 17.98 17.43 17.43 17.43 17.43 19.26 11.32 19.26" fill="#fff" opacity="0.2"/>
  <g>
    <path d="M10.11,11.94c0-.09,0-0.19,0-0.28s0-.21,0-0.32H8.28v1.82H8.89V11.95h1.23v0.63h0.6v0.6h0.61V13.09q0-2.4,0-4.8,0-.92,0-1.85h1.21V5.85H11.33v0.6H10.71v5.47h-0.6Zm4.28-2.44a0.45,0.45,0,0,1,0-.07c0-.15,0-0.3,0-0.45s0,0,0-.08H13.16V6.47H12.55v5.47h0.61V9.51h1.24s0,0.06,0,.09q0,1.12,0,2.25s0,0.07,0,.1H15V10.12h1.23v2.43h0.6V10.71l0.57,0s0,0,0,.05,0,0.29,0,.44,0,0.07,0,.11H18a0,0,0,0,1,.06.06c0,0.24,0,.48,0,0.72q0,1.71,0,3.41s0,0,0,.08h-0.6s0,0,0,0q0,0.86,0,1.72s0,0,0,.06H16.81v1.21H11.94V17.42H11.33V16.21h-0.6a11.4,11.4,0,0,0,0,1.22h0.6v1.83c2,0,4.07,0,6.11,0,0-.1,0-0.19,0-0.28,0-.46,0-0.93,0-1.39a1.53,1.53,0,0,0,0-.16H18c0.05,0,.07,0,0.07-0.07,0-.45,0-0.89,0-1.34,0-.13,0-0.26,0-0.4l0.3,0h0.3V11.33H18v-0.6H17.43V10.11H16.21V9.51H14.39ZM10.1,15v1.21h0.52a0.07,0.07,0,0,0,.08-0.08c0-.32,0-0.65,0-1,0-.06,0-0.11,0-0.17H10.11V13.77H9.49V13.16H8.91a2.7,2.7,0,0,0,0,.62H9.47s0,0,0,.07,0,0.27,0,.41,0,0.45,0,.68a0,0,0,0,0,.05.06H10.1Z" fill="#fff"/>
    <path d="M17.43,17.43s0,0,0-.06q0-.86,0-1.72s0,0,0,0H18s0-.06,0-0.08q0-1.71,0-3.41c0-.24,0-0.48,0-0.72A0,0,0,0,0,18,11.33H17.44s0-.07,0-0.11,0-.29,0-0.44,0-.05,0-0.05l-0.57,0v1.84h-0.6V10.12H15v1.82H14.38s0-.07,0-0.1q0-1.12,0-2.25s0-.06,0-0.09h1.81v0.6h1.22v0.62H18v0.6h0.61v4.28h-0.3l-0.3,0c0,0.14,0,.27,0,0.4,0,0.45,0,.89,0,1.34,0,0.05,0,.07-0.07.07H17.43Z" fill="#fff"/>
    <path d="M17.43,17.43a1.53,1.53,0,0,1,0,.16c0,0.46,0,.93,0,1.39,0,0.09,0,.17,0,0.28-2,0-4.06,0-6.11,0V17.43h-0.6a11.4,11.4,0,0,1,0-1.22h0.6v1.21h0.61v1.22h4.88V17.43h0.62Z" fill="#fff"/>
    <path d="M11.33,6.45q0,0.92,0,1.85,0,2.4,0,4.8v0.07H10.72v-0.6h-0.6V11.93h0.6V6.46h0.61Z" fill="#fff"/>
    <path d="M14.39,9.49H13.16v2.43H12.55V6.47h0.61V8.89h1.21s0,0.06,0,.08,0,0.3,0,.45a0.44,0.44,0,0,0,0,.07h0Z" fill="#fff"/>
    <path d="M10.1,15H9.54a0,0,0,0,1-.05-0.06c0-.23,0-0.45,0-0.68s0-.27,0-0.41,0,0,0-.07H8.88a2.7,2.7,0,0,1,0-.62H9.49v0.61h0.62V15h0.61c0,0.06,0,.12,0,0.17,0,0.32,0,.65,0,1a0.07,0.07,0,0,1-.08.08H10.1V15Z" fill="#fff"/>
    <path d="M10.11,11.93H8.89v1.21H8.28V11.34h1.83c0,0.11,0,.21,0,0.32s0,0.19,0,.28h0Z" fill="#fff"/>
    <path d="M11.33,6.45V5.85h1.21v0.6H11.33Z" fill="#fff"/>
  </g>
</svg>
